#pragma once

// Generated by ./compile_songs.sh
// Don't edit manually!

// clang-format off

const uint16_t anyKindOfCarAndAnyKindOfTruckScore[] PROGMEM = {
 NOTE_C5,136, NOTE_C5,136, NOTE_C5,136, NOTE_C5,136, NOTE_G4,272, NOTE_G4,136, NOTE_E4,136, NOTE_E4,136,
 NOTE_E4,136, NOTE_E4,136, NOTE_C4,409, NOTE_C4,136, NOTE_C4,136, NOTE_C4,136, NOTE_C4,136, NOTE_C4,136,
 NOTE_C4,136, NOTE_D4,272, NOTE_C4,272, NOTE_C4,545,
 TONES_END
};
const uint16_t babySkinScore[] PROGMEM = {
 NOTE_G5,500, NOTE_E5,250, NOTE_C5,750, NOTE_REST,500, NOTE_D5,500, NOTE_B4,250, NOTE_G4,750, NOTE_REST,500,
 NOTE_G5,500, NOTE_E5,250, NOTE_C5,500, NOTE_C5,250, NOTE_C5,250, NOTE_C5,250, NOTE_D5,500, NOTE_E5,500,
 NOTE_C5,500, NOTE_REST,500, NOTE_G5,500, NOTE_E5,250, NOTE_C5,750, NOTE_REST,500, NOTE_D5,500, NOTE_B4,250,
 NOTE_G4,750, NOTE_REST,250, NOTE_G4,250, NOTE_A4,250, NOTE_C5,250, NOTE_A4,250, NOTE_G4,250, NOTE_A4,250,
 NOTE_C5,250, NOTE_C5,250, NOTE_G4,250, NOTE_E5,500, NOTE_D5,500, NOTE_C5,500,
 TONES_END
};
const uint16_t bouncingABallScore[] PROGMEM = {
 NOTE_G5,230, NOTE_G5,230, NOTE_F5,230, NOTE_E5,461, NOTE_REST,461, NOTE_G5,461, NOTE_G5,230, NOTE_G5,230,
 NOTE_A5,461, NOTE_G5,230, NOTE_E5,461, NOTE_G5,230, NOTE_G5,230, NOTE_F5,230, NOTE_E5,461, NOTE_REST,461,
 NOTE_G5,461, NOTE_G5,230, NOTE_G5,230, NOTE_A5,461, NOTE_G5,230, NOTE_E5,230, NOTE_E5,230, NOTE_F5,230,
 NOTE_E5,461, NOTE_D5,461, NOTE_REST,461, NOTE_D5,230, NOTE_F5,230, NOTE_E5,461, NOTE_D5,461, NOTE_REST,461,
 NOTE_D5,230, NOTE_F5,230, NOTE_E5,461, NOTE_D5,461, NOTE_REST,461, NOTE_D5,230, NOTE_F5,230, NOTE_REST,230,
 NOTE_E5,230, NOTE_REST,230, NOTE_C5,230,
 TONES_END
};
const uint16_t bubblesBubblesWhosGotTheBubblesScore[] PROGMEM = {
 NOTE_C5,157, NOTE_C5,315, NOTE_REST,157, NOTE_G4,157, NOTE_G4,315, NOTE_D5,315, NOTE_D5,315, NOTE_D5,157,
 NOTE_G4,157, NOTE_G4,315, NOTE_REST,157, NOTE_C5,157, NOTE_C5,315, NOTE_REST,157, NOTE_G4,157, NOTE_G4,315,
 NOTE_D5,315, NOTE_D5,315, NOTE_D5,157, NOTE_G4,157, NOTE_G4,315, NOTE_REST,157, NOTE_C5,157, NOTE_C5,315,
 NOTE_REST,157, NOTE_G4,157, NOTE_G4,315, NOTE_D5,315, NOTE_D5,315, NOTE_D5,157, NOTE_G4,157, NOTE_G4,315,
 NOTE_REST,157, NOTE_B4,315, NOTE_C5,315, NOTE_REST,315, NOTE_D5,315, NOTE_C5,315,
 TONES_END
};
const uint16_t byeByeBubblesByeByeBathwaterScore[] PROGMEM = {
 NOTE_C5,461, NOTE_C5,461, NOTE_G4,230, NOTE_G4,461, NOTE_D5,692, NOTE_D5,461, NOTE_G4,461, NOTE_G4,230,
 NOTE_G4,230, NOTE_C5,461, NOTE_C5,461, NOTE_G4,230, NOTE_G4,461, NOTE_D5,692, NOTE_E5,461, NOTE_G4,461,
 NOTE_REST,461, NOTE_C5,461, NOTE_C5,461, NOTE_G4,230, NOTE_G4,461, NOTE_D5,692, NOTE_D5,461, NOTE_G4,461,
 NOTE_G4,230, NOTE_G4,230, NOTE_C5,230, NOTE_C5,230, NOTE_C5,230, NOTE_C5,230, NOTE_C5,230, NOTE_C5,230,
 NOTE_C5,230, NOTE_C5,230, NOTE_B4,230, NOTE_B4,230, NOTE_B4,230, NOTE_B4,230, NOTE_C5,461,
 TONES_END
};
const uint16_t dadaDoScore[] PROGMEM = {
 NOTE_C6,428, NOTE_C6,428, NOTE_G5,428, NOTE_REST,214, NOTE_D6,642, NOTE_D6,428, NOTE_G5,428, NOTE_REST,428,
 NOTE_C6,428, NOTE_C6,428, NOTE_G5,428, NOTE_REST,214, NOTE_E5,642, NOTE_E5,428, NOTE_C5,428, NOTE_REST,428,
 NOTE_C6,428, NOTE_C6,428, NOTE_G5,428, NOTE_REST,214, NOTE_D6,642, NOTE_D6,428, NOTE_G5,428, NOTE_C6,857,
 TONES_END
};
const uint16_t gettingPapaSomeCoffeeScore[] PROGMEM = {
 NOTE_REST,375, NOTE_C5,187, NOTE_C5,187, NOTE_C5,187, NOTE_C5,187, NOTE_C5,187, NOTE_DS5,375, NOTE_C5,375,
 NOTE_REST,562, NOTE_C5,187, NOTE_C5,187, NOTE_DS5,187, NOTE_DS5,187, NOTE_DS5,187, NOTE_DS5,375, NOTE_C5,375,
 NOTE_REST,187, NOTE_G5,187, NOTE_G5,187, NOTE_G5,187, NOTE_G5,375, NOTE_C5,375,
 TONES_END
};
const uint16_t guyInACopCarRunningARedLightScore[] PROGMEM = {
 NOTE_C5,461, NOTE_C5,230, NOTE_C5,230, NOTE_A4,461, NOTE_G4,461, NOTE_C5,230, NOTE_C5,230, NOTE_C5,230,
 NOTE_A4,461, NOTE_G4,461, NOTE_C5,692, NOTE_C5,230, NOTE_C5,230, NOTE_A4,461, NOTE_G4,461, NOTE_E5,230,
 NOTE_E5,230, NOTE_E5,230, NOTE_D5,461, NOTE_C5,461,
 TONES_END
};
const uint16_t iGotARockInMyPocketScore[] PROGMEM = {
 NOTE_REST,142, NOTE_G4,142, NOTE_G4,142, NOTE_G4,142, NOTE_E5,285, NOTE_REST,285, NOTE_D5,285, NOTE_REST,142,
 NOTE_C5,142, NOTE_D5,142, NOTE_C5,428, NOTE_REST,142, NOTE_C5,142, NOTE_C5,142, NOTE_C5,142, NOTE_F5,142,
 NOTE_D5,142, NOTE_D5,142, NOTE_D5,142, NOTE_D5,142, NOTE_C5,142, NOTE_C5,142, NOTE_C5,142, NOTE_F5,142,
 NOTE_D5,142, NOTE_D5,142, NOTE_D5,142, NOTE_D5,142, NOTE_G4,142, NOTE_G4,142, NOTE_G4,142, NOTE_E5,285,
 NOTE_REST,285, NOTE_D5,285, NOTE_REST,142, NOTE_C5,142, NOTE_D5,142, NOTE_C5,285,
 TONES_END
};
const uint16_t iMakeALittleTacoScore[] PROGMEM = {
 NOTE_G4,1090, NOTE_C5,136, NOTE_C5,136, NOTE_C5,136, NOTE_C5,136, NOTE_G4,272, NOTE_G4,272, NOTE_E4,272,
 NOTE_E4,272, NOTE_C4,272, NOTE_C4,272, NOTE_C4,136, NOTE_C4,136, NOTE_C4,136, NOTE_C4,136, NOTE_D4,272,
 NOTE_C4,272, NOTE_C4,545, NOTE_REST,545, NOTE_C4,272, NOTE_C4,272, NOTE_D4,272, NOTE_D4,136, NOTE_D4,136,
 NOTE_E4,272, NOTE_E4,272, NOTE_F4,409, NOTE_C4,136, NOTE_E4,272, NOTE_C4,272, NOTE_D4,272, NOTE_B3,272,
 NOTE_C4,545, NOTE_C5,272,
 TONES_END
};
const uint16_t iThinkALotAboutRinsingThatCoffeePotScore[] PROGMEM = {
 NOTE_G4,230, NOTE_REST,115, NOTE_E4,230, NOTE_REST,115, NOTE_F4,115, NOTE_REST,115, NOTE_G4,115, NOTE_REST,115,
 NOTE_C4,230, NOTE_C4,230, NOTE_REST,230, NOTE_D4,230, NOTE_REST,115, NOTE_E4,230, NOTE_REST,115, NOTE_D4,115,
 NOTE_REST,115, NOTE_C4,115, NOTE_REST,115, NOTE_G3,230, NOTE_G3,230, NOTE_REST,230, NOTE_G4,230, NOTE_REST,115,
 NOTE_E4,230, NOTE_REST,115, NOTE_F4,115, NOTE_REST,115, NOTE_G4,115, NOTE_REST,115, NOTE_C4,230, NOTE_C4,230,
 NOTE_REST,230, NOTE_D4,230, NOTE_REST,115, NOTE_E4,230, NOTE_REST,115, NOTE_D4,115, NOTE_REST,115, NOTE_C4,230,
 TONES_END
};
const uint16_t letsGoPeeWithDadScore[] PROGMEM = {
 NOTE_C5,413, NOTE_AS4,206, NOTE_C5,413, NOTE_DS5,413, NOTE_AS4,620, NOTE_REST,1241, NOTE_C5,413, NOTE_AS4,206,
 NOTE_C5,413, NOTE_DS5,413, NOTE_AS4,620, NOTE_REST,827, NOTE_C5,413, NOTE_C5,413, NOTE_AS4,206, NOTE_C5,413,
 NOTE_DS5,206, NOTE_E5,206, NOTE_F5,620, NOTE_DS5,206, NOTE_C5,620, NOTE_REST,413, NOTE_C5,206, NOTE_C5,206,
 NOTE_C5,206, NOTE_C5,206, NOTE_AS4,206, NOTE_B4,413, NOTE_C5,620,
 TONES_END
};
const uint16_t mrStandingWhosMyLittleStandingBoyScore[] PROGMEM = {
 NOTE_C5,461, NOTE_G4,230, NOTE_C5,461, NOTE_G4,461, NOTE_D5,461, NOTE_G4,230, NOTE_G4,230, NOTE_G4,230,
 NOTE_A4,230, NOTE_A4,230, NOTE_G4,230, NOTE_REST,230, NOTE_C5,461, NOTE_G4,230, NOTE_C5,461, NOTE_G4,461,
 NOTE_D5,461, NOTE_G4,230, NOTE_G4,230, NOTE_G4,230, NOTE_A4,230, NOTE_A4,230, NOTE_G4,230, NOTE_REST,230,
 NOTE_C5,461, NOTE_G4,230, NOTE_C5,461, NOTE_G4,461, NOTE_D5,461, NOTE_G4,230, NOTE_G4,230, NOTE_G4,230,
 NOTE_A4,230, NOTE_A4,230, NOTE_G4,230, NOTE_F4,230, NOTE_E4,230, NOTE_E4,230, NOTE_E4,230, NOTE_F4,230,
 NOTE_D4,230, NOTE_D4,230, NOTE_D4,230, NOTE_E4,230, NOTE_C4,923,
 TONES_END
};
const uint16_t myBabyIsAPunchingMachineScore[] PROGMEM = {
 NOTE_C5,250, NOTE_C5,500, NOTE_G4,250, NOTE_G4,250, NOTE_G4,250, NOTE_A4,250, NOTE_C5,250, NOTE_A4,250,
 NOTE_C5,1000, NOTE_REST,750, NOTE_C5,250, NOTE_C5,500, NOTE_G4,750, NOTE_A4,250, NOTE_C5,250, NOTE_A4,250,
 NOTE_G4,1000, NOTE_REST,750, NOTE_C5,250, NOTE_C5,500, NOTE_G4,250, NOTE_G4,250, NOTE_G4,250, NOTE_A4,250,
 NOTE_C5,250, NOTE_A4,250, NOTE_C5,500, NOTE_C5,250, NOTE_C5,250, NOTE_C5,500, NOTE_G4,250, NOTE_G4,250,
 NOTE_G4,250, NOTE_E5,250, NOTE_D5,250, NOTE_C5,250, NOTE_C5,500,
 TONES_END
};
const uint16_t myBabyLovesToGoPoopyScore[] PROGMEM = {
 NOTE_REST,250, NOTE_C4,250, NOTE_G4,250, NOTE_G4,125, NOTE_G4,250, NOTE_G4,125, NOTE_A4,250, NOTE_E4,250,
 NOTE_C4,250, NOTE_REST,250, NOTE_C4,250, NOTE_G4,250, NOTE_G4,125, NOTE_G4,250, NOTE_G4,125, NOTE_A4,250,
 NOTE_E4,500, NOTE_REST,250, NOTE_C4,250, NOTE_G4,250, NOTE_G4,125, NOTE_G4,250, NOTE_G4,125, NOTE_A4,250,
 NOTE_E4,250, NOTE_C4,250, NOTE_REST,250, NOTE_C4,250, NOTE_B3,250, NOTE_B3,125, NOTE_B3,250, NOTE_B3,125,
 NOTE_C4,500,
 TONES_END
};
const uint16_t oneTwoThreeFourFiveSixSevenEightNineTenScore[] PROGMEM = {
 NOTE_C5,272, NOTE_REST,136, NOTE_E5,272, NOTE_REST,136, NOTE_G5,272, NOTE_D5,272, NOTE_REST,136, NOTE_F5,272,
 NOTE_REST,136, NOTE_A5,272, NOTE_E5,272, NOTE_REST,136, NOTE_G5,272, NOTE_REST,136, NOTE_D6,272, NOTE_C6,545,
 TONES_END
};
const uint16_t poopStuckToAButtScore[] PROGMEM = {
 NOTE_C5,272, NOTE_REST,272, NOTE_C5,272, NOTE_REST,272, NOTE_DS5,272, NOTE_DS5,136, NOTE_C5,272, NOTE_REST,136,
 NOTE_C5,272, NOTE_AS4,272, NOTE_AS4,272, NOTE_B4,136, NOTE_REST,136, NOTE_C5,545, NOTE_REST,818, NOTE_C5,272,
 NOTE_REST,272, NOTE_C5,272, NOTE_REST,272, NOTE_DS5,272, NOTE_DS5,136, NOTE_C5,272, NOTE_REST,136, NOTE_C5,272,
 NOTE_G5,272, NOTE_F5,272, NOTE_DS5,272, NOTE_C5,545,
 TONES_END
};
const uint16_t puttingOnYourPantsLikeABigBoyScore[] PROGMEM = {
 NOTE_C5,150, NOTE_C5,150, NOTE_C5,150, NOTE_C5,150, NOTE_C5,300, NOTE_C5,150, NOTE_C5,150, NOTE_DS5,300,
 NOTE_C5,300, NOTE_REST,600, NOTE_AS4,150, NOTE_AS4,150, NOTE_AS4,150, NOTE_AS4,150, NOTE_AS4,300, NOTE_AS4,150,
 NOTE_AS4,150, NOTE_AS4,150, NOTE_C5,300, NOTE_C5,300, NOTE_REST,450, NOTE_C5,150, NOTE_C5,150, NOTE_C5,150,
 NOTE_C5,150, NOTE_C5,300, NOTE_C5,150, NOTE_C5,150, NOTE_DS5,300, NOTE_F5,300, NOTE_C5,300, NOTE_C5,150,
 NOTE_C5,150, NOTE_G5,300, NOTE_F5,300, NOTE_DS5,300, NOTE_AS4,150, NOTE_AS4,150, NOTE_AS4,150, NOTE_C5,300,
 NOTE_C5,300,
 TONES_END
};
const uint16_t streetSweeperScore[] PROGMEM = {
 NOTE_REST,461, NOTE_C5,230, NOTE_REST,230, NOTE_B4,230, NOTE_C5,230, NOTE_REST,2769, NOTE_C5,230, NOTE_REST,230,
 NOTE_D5,230, NOTE_C5,230,
 TONES_END
};
const uint16_t thatsHowYouSpellMamaScore[] PROGMEM = {
 NOTE_C5,352, NOTE_C5,352, NOTE_D5,352, NOTE_D5,264, NOTE_REST,88, NOTE_C5,352, NOTE_C5,352, NOTE_D5,352,
 NOTE_D5,264, NOTE_REST,88, NOTE_C5,352, NOTE_C5,352, NOTE_D5,352, NOTE_D5,264, NOTE_REST,88, NOTE_C5,176,
 NOTE_REST,176, NOTE_C5,176, NOTE_E5,352, NOTE_D5,176, NOTE_C5,264, NOTE_REST,88, NOTE_E5,352, NOTE_C5,1058,
 NOTE_REST,352, NOTE_C5,176, NOTE_E5,352, NOTE_D5,176, NOTE_C5,264, NOTE_REST,88, NOTE_E5,352, NOTE_C5,1058,
 NOTE_REST,352, NOTE_C5,176, NOTE_E5,352, NOTE_D5,176, NOTE_C5,264, NOTE_REST,88, NOTE_E5,352, NOTE_C5,1058,
 NOTE_REST,352, NOTE_C5,176, NOTE_G5,352, NOTE_G5,176, NOTE_G5,352, NOTE_F5,352, NOTE_E5,1058,
 TONES_END
};
const uint16_t thisTownsGotALotOfConstructionScore[] PROGMEM = {
 NOTE_G4,230, NOTE_C5,461, NOTE_C5,230, NOTE_G4,461, NOTE_G4,230, NOTE_G4,230, NOTE_G4,230, NOTE_D5,461,
 NOTE_D5,230, NOTE_G4,461, NOTE_G4,461, NOTE_C5,461, NOTE_C5,230, NOTE_E5,230, NOTE_E5,230, NOTE_E5,230,
 NOTE_D5,230, NOTE_C5,461, NOTE_D5,461, NOTE_C5,692,
 TONES_END
};
const uint16_t washingYourFaceScore[] PROGMEM = {
 NOTE_G5,250, NOTE_G5,250, NOTE_F5,250, NOTE_E5,500, NOTE_REST,500, NOTE_G5,500, NOTE_G5,250, NOTE_A5,500,
 NOTE_E5,500, NOTE_REST,500, NOTE_F5,250, NOTE_E5,500, NOTE_D5,500, NOTE_REST,500, NOTE_F5,250, NOTE_F5,250,
 NOTE_E5,500, NOTE_D5,500,
 TONES_END
};
const uint16_t weAreDressingUpAsAFamilyOfSkeletonsScore[] PROGMEM = {
 NOTE_C5,521, NOTE_E5,521, NOTE_D5,260, NOTE_D5,130, NOTE_G4,260, NOTE_G4,260, NOTE_G4,130, NOTE_C5,260,
 NOTE_C5,260, NOTE_E5,260, NOTE_E5,260, NOTE_D5,260, NOTE_D5,130, NOTE_G4,521, NOTE_REST,130, NOTE_C5,521,
 NOTE_E5,521, NOTE_D5,260, NOTE_D5,130, NOTE_F5,260, NOTE_F5,260, NOTE_F5,130, NOTE_G5,260, NOTE_F5,260,
 NOTE_E5,260, NOTE_D5,260, NOTE_E5,260, NOTE_D5,130, NOTE_C5,521,
 TONES_END
};
const uint16_t wereAlmostHomeScore[] PROGMEM = {
 NOTE_REST,250, NOTE_C5,250, NOTE_E5,500, NOTE_D5,500, NOTE_C5,500, NOTE_C5,500, NOTE_D5,375, NOTE_C5,375,
 NOTE_B4,750, NOTE_REST,500, NOTE_E5,250, NOTE_E5,250, NOTE_D5,500, NOTE_C5,250, NOTE_C5,250, NOTE_C5,500,
 NOTE_D5,375, NOTE_C5,375, NOTE_B4,750, NOTE_REST,250, NOTE_B4,250, NOTE_E5,500, NOTE_D5,500, NOTE_C5,500,
 NOTE_C5,500, NOTE_D5,375, NOTE_C5,375, NOTE_B4,500, NOTE_G4,500, NOTE_A4,1000,
 TONES_END
};
const uint16_t whenYoureDoneWithYourHamYouThrowItOnTheGroundScore[] PROGMEM = {
 NOTE_G4,666, NOTE_G4,666, NOTE_C5,333, NOTE_C5,166, NOTE_C5,166, NOTE_G4,333, NOTE_REST,166, NOTE_G4,166,
 NOTE_C5,166, NOTE_C5,166, NOTE_C5,166, NOTE_C5,166, NOTE_G4,166, NOTE_REST,166, NOTE_G4,166, NOTE_G4,166,
 NOTE_C5,333, NOTE_C5,166, NOTE_C5,166, NOTE_D5,333, NOTE_C5,333, NOTE_C5,166, NOTE_B4,166, NOTE_B4,166,
 NOTE_B4,166, NOTE_B4,166, NOTE_REST,166, NOTE_A4,166, NOTE_A4,166, NOTE_B4,333, NOTE_B4,166, NOTE_B4,166,
 NOTE_G4,333, NOTE_REST,166, NOTE_G4,166, NOTE_B4,166, NOTE_B4,166, NOTE_B4,166, NOTE_B4,166, NOTE_G4,166,
 NOTE_REST,166, NOTE_G4,166, NOTE_G4,166, NOTE_D5,333, NOTE_D5,166, NOTE_D5,166, NOTE_E5,333, NOTE_D5,333,
 NOTE_D5,166, NOTE_C5,166, NOTE_C5,166, NOTE_C5,166, NOTE_C5,333,
 TONES_END
};
const uint16_t whosMyLittleBabyBirdScore[] PROGMEM = {
 NOTE_E5,136, NOTE_E5,136, NOTE_E5,136, NOTE_E5,136, NOTE_E5,272, NOTE_E5,272, NOTE_E5,272, NOTE_D5,272,
 NOTE_C5,545, NOTE_E5,136, NOTE_E5,136, NOTE_E5,136, NOTE_E5,136, NOTE_E5,272, NOTE_E5,272, NOTE_E5,272,
 NOTE_D5,272, NOTE_C5,545, NOTE_E5,136, NOTE_E5,136, NOTE_E5,136, NOTE_E5,136, NOTE_E5,272, NOTE_E5,272,
 NOTE_E5,272, NOTE_D5,272, NOTE_C5,272, NOTE_C5,272, NOTE_G4,272, NOTE_C5,272, NOTE_B4,272, NOTE_D5,272,
 NOTE_C5,272, NOTE_C5,272, NOTE_C5,477,
 TONES_END
};
const uint16_t whosMyLittleDaikiniBabyScore[] PROGMEM = {
 NOTE_C5,375, NOTE_E5,375, NOTE_D5,187, NOTE_D5,187, NOTE_F5,375, NOTE_E5,375, NOTE_C5,375, NOTE_D5,375,
 NOTE_G4,375, NOTE_C5,375, NOTE_E5,375, NOTE_D5,187, NOTE_D5,187, NOTE_F5,375, NOTE_E5,375, NOTE_C5,375,
 NOTE_D5,562, NOTE_REST,187, NOTE_C5,375, NOTE_E5,375, NOTE_D5,187, NOTE_D5,187, NOTE_F5,375, NOTE_E5,375,
 NOTE_C5,375, NOTE_D5,375, NOTE_G4,375, NOTE_C5,375, NOTE_C5,375, NOTE_C5,187, NOTE_C5,187, NOTE_C5,375,
 NOTE_B4,375, NOTE_C5,375, NOTE_C5,562,
 TONES_END
};

const uint16_t * const songScores[] = {
    anyKindOfCarAndAnyKindOfTruckScore,
    babySkinScore,
    bouncingABallScore,
    bubblesBubblesWhosGotTheBubblesScore,
    byeByeBubblesByeByeBathwaterScore,
    dadaDoScore,
    gettingPapaSomeCoffeeScore,
    guyInACopCarRunningARedLightScore,
    iGotARockInMyPocketScore,
    iMakeALittleTacoScore,
    iThinkALotAboutRinsingThatCoffeePotScore,
    letsGoPeeWithDadScore,
    mrStandingWhosMyLittleStandingBoyScore,
    myBabyIsAPunchingMachineScore,
    myBabyLovesToGoPoopyScore,
    oneTwoThreeFourFiveSixSevenEightNineTenScore,
    poopStuckToAButtScore,
    puttingOnYourPantsLikeABigBoyScore,
    streetSweeperScore,
    thatsHowYouSpellMamaScore,
    thisTownsGotALotOfConstructionScore,
    washingYourFaceScore,
    weAreDressingUpAsAFamilyOfSkeletonsScore,
    wereAlmostHomeScore,
    whenYoureDoneWithYourHamYouThrowItOnTheGroundScore,
    whosMyLittleBabyBirdScore,
    whosMyLittleDaikiniBabyScore,
};
