#pragma once
const uint16_t MY_BABY_LOVES_TO_GO_POOPY_SCORE[] PROGMEM = {
 NOTE_REST,250, NOTE_C4,250, NOTE_G4,250, NOTE_G4,125, NOTE_G4,250, NOTE_G4,125, NOTE_A4,250, NOTE_E4,250,
 NOTE_C4,500, NOTE_C4,250, NOTE_G4,250, NOTE_G4,125, NOTE_G4,250, NOTE_G4,125, NOTE_A4,250, NOTE_E4,750,
 NOTE_C4,250, NOTE_G4,250, NOTE_G4,125, NOTE_G4,250, NOTE_G4,125, NOTE_A4,250, NOTE_E4,250, NOTE_C4,500,
 NOTE_C4,250, NOTE_B3,250, NOTE_B3,125, NOTE_B3,250, NOTE_B3,125, NOTE_C4,750,
 TONES_END
};
const char MY_BABY_LOVES_TO_GO_POOPY_TITLE[] PROGMEM = "MY BABY LOVES TO GO POOPY";
const uint16_t MY_BABY_LOVES_TO_GO_POOPY_LENGTH = 
250+250+250+125+250+125+250+250+500+250+250+125+250+125+250+750+250+250+125+250+125+250+250+500+250+250+125+250+125+750+0;
const uint16_t WASHING_YOUR_FACE_SCORE[] PROGMEM = {
 NOTE_G5,250, NOTE_G5,250, NOTE_F5,250, NOTE_E5,500, NOTE_REST,500, NOTE_G5,500, NOTE_G5,250, NOTE_A5,500,
 NOTE_E5,500, NOTE_REST,500, NOTE_F5,250, NOTE_E5,500, NOTE_D5,500, NOTE_REST,500, NOTE_F5,250, NOTE_F5,250,
 NOTE_E5,500, NOTE_D5,500,
 TONES_END
};
const char WASHING_YOUR_FACE_TITLE[] PROGMEM = "WASHING YOUR FACE";
const uint16_t WASHING_YOUR_FACE_LENGTH = 
250+250+250+500+500+500+250+500+500+500+250+500+500+500+250+250+500+500+0;
const uint16_t WHOS_MY_LITTLE_BABY_BIRD_SCORE[] PROGMEM = {
 NOTE_E5,136, NOTE_E5,136, NOTE_E5,136, NOTE_E5,136, NOTE_E5,272, NOTE_E5,272, NOTE_E5,272, NOTE_D5,272,
 NOTE_C5,545, NOTE_E5,136, NOTE_E5,136, NOTE_E5,136, NOTE_E5,136, NOTE_E5,272, NOTE_E5,272, NOTE_E5,272,
 NOTE_D5,272, NOTE_C5,545, NOTE_E5,136, NOTE_E5,136, NOTE_E5,136, NOTE_E5,136, NOTE_E5,272, NOTE_E5,272,
 NOTE_E5,272, NOTE_D5,272, NOTE_C5,272, NOTE_C5,272, NOTE_G4,272, NOTE_C5,272, NOTE_B4,272, NOTE_D5,272,
 NOTE_C5,272, NOTE_C5,272, NOTE_C5,477,
 TONES_END
};
const char WHOS_MY_LITTLE_BABY_BIRD_TITLE[] PROGMEM = "WHOS MY LITTLE BABY BIRD";
const uint16_t WHOS_MY_LITTLE_BABY_BIRD_LENGTH = 
136+136+136+136+272+272+272+272+545+136+136+136+136+272+272+272+272+545+136+136+136+136+272+272+272+272+272+272+272+272+272+272+272+272+477+0;
