#pragma once
const uint16_t ANY_KIND_OF_CAR_AND_ANY_KIND_OF_TRUCK_SCORE[] PROGMEM = {
 NOTE_C5,136, NOTE_C5,136, NOTE_C5,136, NOTE_C5,136, NOTE_G4,272, NOTE_G4,136, NOTE_E4,136, NOTE_E4,136,
 NOTE_E4,136, NOTE_E4,136, NOTE_C4,409, NOTE_C4,136, NOTE_C4,136, NOTE_C4,136, NOTE_C4,136, NOTE_C4,136,
 NOTE_C4,136, NOTE_D4,272, NOTE_C4,272, NOTE_C4,545,
 TONES_END
};
const uint16_t ANY_KIND_OF_CAR_AND_ANY_KIND_OF_TRUCK_LENGTH = 
136+136+136+136+272+136+136+136+136+136+409+136+136+136+136+136+136+272+272+545+0;
const uint16_t MY_BABY_LOVES_TO_GO_POOPY_SCORE[] PROGMEM = {
 NOTE_REST,250, NOTE_C4,250, NOTE_G4,250, NOTE_G4,125, NOTE_G4,250, NOTE_G4,125, NOTE_A4,250, NOTE_E4,250,
 NOTE_C4,500, NOTE_C4,250, NOTE_G4,250, NOTE_G4,125, NOTE_G4,250, NOTE_G4,125, NOTE_A4,250, NOTE_E4,750,
 NOTE_C4,250, NOTE_G4,250, NOTE_G4,125, NOTE_G4,250, NOTE_G4,125, NOTE_A4,250, NOTE_E4,250, NOTE_C4,500,
 NOTE_C4,250, NOTE_B3,250, NOTE_B3,125, NOTE_B3,250, NOTE_B3,125, NOTE_C4,750, NOTE_REST,250, NOTE_C4,250,
 NOTE_E4,250, NOTE_E4,125, NOTE_D4,250, NOTE_D4,125, NOTE_C4,1000,
 TONES_END
};
const uint16_t MY_BABY_LOVES_TO_GO_POOPY_LENGTH = 
250+250+250+125+250+125+250+250+500+250+250+125+250+125+250+750+250+250+125+250+125+250+250+500+250+250+125+250+125+750+250+250+250+125+250+125+1000+0;
const uint16_t THIS_TOWNS_GOT_A_LOT_OF_CONSTRUCTION_SCORE[] PROGMEM = {
 NOTE_REST,250, NOTE_G3,250, NOTE_C4,500, NOTE_C4,250, NOTE_G3,500, NOTE_G3,250, NOTE_G3,250, NOTE_G3,250,
 NOTE_D4,500, NOTE_D4,250, NOTE_G3,500, NOTE_G3,250, NOTE_G3,250, NOTE_C4,500, NOTE_C4,250, NOTE_E4,250,
 NOTE_E4,250, NOTE_E4,250, NOTE_D4,250, NOTE_C4,500, NOTE_D4,500, NOTE_C4,1000,
 TONES_END
};
const uint16_t THIS_TOWNS_GOT_A_LOT_OF_CONSTRUCTION_LENGTH = 
250+250+500+250+500+250+250+250+500+250+500+250+250+500+250+250+250+250+250+500+500+1000+0;
const uint16_t WASHING_YOUR_FACE_SCORE[] PROGMEM = {
 NOTE_G5,250, NOTE_G5,250, NOTE_F5,250, NOTE_E5,500, NOTE_REST,500, NOTE_G5,500, NOTE_G5,250, NOTE_A5,500,
 NOTE_E5,500, NOTE_REST,500, NOTE_F5,250, NOTE_E5,500, NOTE_D5,500, NOTE_REST,500, NOTE_F5,250, NOTE_F5,250,
 NOTE_E5,500, NOTE_D5,500,
 TONES_END
};
const uint16_t WASHING_YOUR_FACE_LENGTH = 
250+250+250+500+500+500+250+500+500+500+250+500+500+500+250+250+500+500+0;
const uint16_t WHOS_MY_LITTLE_BABY_BIRD_SCORE[] PROGMEM = {
 NOTE_E5,136, NOTE_E5,136, NOTE_E5,136, NOTE_E5,136, NOTE_E5,272, NOTE_E5,272, NOTE_E5,272, NOTE_D5,272,
 NOTE_C5,545, NOTE_E5,136, NOTE_E5,136, NOTE_E5,136, NOTE_E5,136, NOTE_E5,272, NOTE_E5,272, NOTE_E5,272,
 NOTE_D5,272, NOTE_C5,545, NOTE_E5,136, NOTE_E5,136, NOTE_E5,136, NOTE_E5,136, NOTE_E5,272, NOTE_E5,272,
 NOTE_E5,272, NOTE_D5,272, NOTE_C5,272, NOTE_C5,272, NOTE_G4,272, NOTE_C5,272, NOTE_B4,272, NOTE_D5,272,
 NOTE_C5,272, NOTE_C5,272, NOTE_C5,477,
 TONES_END
};
const uint16_t WHOS_MY_LITTLE_BABY_BIRD_LENGTH = 
136+136+136+136+272+272+272+272+545+136+136+136+136+272+272+272+272+545+136+136+136+136+272+272+272+272+272+272+272+272+272+272+272+272+477+0;
const uint16_t WHOS_MY_LITTLE_DAIKINI_BABY_SCORE[] PROGMEM = {
 NOTE_C4,500, NOTE_E4,500, NOTE_D4,250, NOTE_D4,250, NOTE_F4,500, NOTE_E4,500, NOTE_C4,500, NOTE_D4,500,
 NOTE_G3,500, NOTE_C4,500, NOTE_E4,500, NOTE_D4,250, NOTE_D4,250, NOTE_F4,500, NOTE_E4,500, NOTE_C4,500,
 NOTE_D4,1000, NOTE_C4,500, NOTE_E4,500, NOTE_D4,250, NOTE_D4,250, NOTE_F4,500, NOTE_E4,500, NOTE_C4,500,
 NOTE_D4,500, NOTE_G3,500, NOTE_C4,500, NOTE_C4,500, NOTE_C4,250, NOTE_C4,250, NOTE_C4,500, NOTE_B3,500,
 NOTE_C4,500, NOTE_C4,1000,
 TONES_END
};
const uint16_t WHOS_MY_LITTLE_DAIKINI_BABY_LENGTH = 
500+500+250+250+500+500+500+500+500+500+500+250+250+500+500+500+1000+500+500+250+250+500+500+500+500+500+500+500+250+250+500+500+500+1000+0;
